<?xml version="1.0" encoding="utf-8"?>
<!-- Generator: Adobe Illustrator 22.1.0, SVG Export Plug-In . SVG Version: 6.00 Build 0)  -->
<svg version="1.1" id="图层_1" xmlns="http://www.w3.org/2000/svg" xmlns:xlink="http://www.w3.org/1999/xlink" x="0px" y="0px"
	 viewBox="0 0 268.9 78.3" style="enable-background:new 0 0 268.9 78.3;" xml:space="preserve">
<style type="text/css">
	.st0{fill:#FFFFFF;}
</style>
<path class="st0" d="M220.3,29.4c1-0.8,2.7-2.3,5.5-2.4h39.7V15.7c-0.1-7.2-6-13.2-13.3-13.2h-47.7c-7.2,0-13.2,6-13.2,13.2v47.8
	c0,7.3,5.9,13.2,13.2,13.2h47.7c7.2,0,13.2-6,13.2-13.2V36.8h-39.9c-6.2,1.8-9.9,18.8,0.9,23.4l24.3,0.1c3.7-0.6,3.5-7.7,0-7.4
	h-14.6c-5.4-0.2-5.5-9.1-0.1-9.5h13.4h2c12.9,0.5,12.4,25.4,1.2,26.7h-2.3h-25.1c-1.1-0.1-3.6-1-5-2.2
	C205.9,56.8,209.8,36.6,220.3,29.4z M212.7,12c0-1,0.8-1.9,1.7-1.9h44.7c0.9,0,1.7,0.9,1.7,1.9v6.3c0,1-0.8,1.9-1.7,1.9h-44.7
	c-0.9,0-1.7-0.9-1.7-1.9L212.7,12L212.7,12z M209.4,36.7h-11.2c-4.9-0.8-4.6-9.1,0-9.7h18.4C213.3,29.1,210.8,32.2,209.4,36.7z"/>
<g>
	<path class="st0" d="M21.2,43.5C13.9,52.3,9.1,56.8,1.6,62.1c0,5,0,9.2,0,14.5c8.2-5.4,12.4-9.2,19.7-16.2
		C21.3,54.9,21.2,50,21.2,43.5z"/>
	<path class="st0" d="M79.7,43.2H65.5c-2.9,3.4-5,5.5-8.3,8.6c-2.5-2.5-5.4-5.5-8-8.5c-3.4,0-6,0-9.4,0v-3.1h32.6
		c3.1,0,6.8-2.6,6.8-6.9c0-6.8-0.1-13.5-0.1-20.2c0-3.9-3.4-6.8-6.7-6.8c-4.6,0-8.4,0-12.9,0V1.8H45.6v4.5H25.9v63.6
		c0,4.6,4,7,6.9,7c5.3,0,10,0,15.3,0l2.5-6.7h-8.3c-1.5,0-2.6-0.8-2.6-2.1c-0.1-6.8,0-12.7,0-19.7c8.8,10.3,18.1,19.8,27,28.3
		c6.2,0,12.2,0.1,18.4,0.1c-6.7-5.9-13.7-11.7-20-17.3C70.2,54.5,75.5,49,79.7,43.2z M39.9,19.8v-7h23.3c1.1,0,2.1,0.9,2.1,1.9
		c0,5.8,0,10.6,0,16.4c0,1.5-1.1,2.2-2.1,2.2c-7.9,0-15.5,0-23.5,0v-6.9H59l2.4-6.6L39.9,19.8z"/>
	<path class="st0" d="M21.2,41.1c0-4.3,0-7.7,0-12c-6.8-4.5-13.4-8.2-19.6-10.9c-0.1,4,0,8,0,12C7.7,33,14.4,36.4,21.2,41.1z"/>
	<path class="st0" d="M1.6,13.5c6.2,2.8,12.7,6.2,19.6,10.9c0-4.4,0-7.7,0-11.9C14.8,8.1,7.4,4,1.6,1.5C1.6,5.4,1.6,9.6,1.6,13.5z"
		/>
</g>
<g>
	<path class="st0" d="M173.7,12.6c0-2.1-0.8-3.8-2-4.9c-1-0.9-2.4-1.5-3.8-1.5c-7,0-13.4,0-20.4,0v6.7h16.8v11.9h-7.4v-9.4h-9.3
		c0.1,8.9,0,17.5-0.1,26.2c-0.1,11.6-0.3,23.1-1,35c3.2-1.1,6.3-2.3,9.5-3.5c0.2-3.1,0.2-6,0.4-8.8c0.2-4.8,0.4-9.4,0.5-14.5
		c2.3,0,5.2,0,7.6,0v18.1c0,1.1-0.9,2.1-2.2,2.1c-1.2,0-1.4,0-2.6,0v6.6h7.6c1.6,0,3.3-0.8,4.5-2c1.2-1.1,2.1-3,2.1-4.7
		c0.1-10.1,0-20.1,0-30C173.6,30.9,173.7,21.8,173.7,12.6z M164.3,43.2h-7.5V31.3h7.5V43.2z"/>
	<path class="st0" d="M136.9,18.2c-1.4,0-2.2,0-3.6,0v-5.3h9.4V6.1h-9.5V1.6h-9.3v4.5h-9.5v6.8h9.5v5.3h-9.5l0.1,33.1h9.5V58h-9.5
		v6.6h9.5v12.1l9.4-3.4v-8.6h9.5v-6.6h-9.5v-6.7h9.5v-27c0-1.8-0.9-3.5-2-4.5C139.8,18.8,138.1,18.3,136.9,18.2z M123.7,24.8h9.6
		v6.7h-9.6V24.8z M133.4,44.7h-9.6v-6.6h9.7L133.4,44.7z"/>
	<path class="st0" d="M109.7,12.5c-5.9-4.2-14.4-8.6-19.6-10.9c0,3.9,0,8.1,0,12c5.1,2.2,13.2,6.3,19.6,10.9
		C109.7,20.2,109.8,16.8,109.7,12.5z"/>
	<path class="st0" d="M109.7,29.1c-5.8-3.9-14.5-8.6-19.6-10.8c0,3.9,0,8,0,11.9c5.6,2.5,13.6,6.7,19.6,10.8
		C109.7,36.8,109.8,33.4,109.7,29.1z"/>
	<path class="st0" d="M94.5,59c-1.4,1.1-2.9,2.1-4.3,3.1c0,4.8,0,9.2,0,14.5c4.2-2.8,8.4-6,12.7-9.7c2.2-2,4.5-4.1,6.8-6.4
		c0-5.3,0-11.2,0-16.9C104.9,49.6,99.8,54.7,94.5,59z"/>
</g>
</svg>
